<svg width="458" height="179" viewBox="0 0 458 179" fill="none" xmlns="http://www.w3.org/2000/svg">
<mask id="mask0_1_2" style="mask-type:luminance" maskUnits="userSpaceOnUse" x="299" y="109" width="86" height="7">
<path d="M299.687 109.954H385V115.29H299.687V109.954Z" fill="white"/>
</mask>
<g mask="url(#mask0_1_2)">
<path d="M385.165 115.013H300.269V110.774H385.165V115.013Z" fill="white"/>
</g>
<mask id="mask1_1_2" style="mask-type:luminance" maskUnits="userSpaceOnUse" x="338" y="54" width="11" height="10">
<path d="M338.875 54.3548H348.28V63.7071H338.875V54.3548Z" fill="white"/>
</mask>
<g mask="url(#mask1_1_2)">
<path d="M346.737 58.7182C346.737 61.1293 345.016 63.0817 342.898 63.0817C340.773 63.0817 339.052 61.1293 339.052 58.7182C339.052 56.3072 340.773 54.3548 342.898 54.3548C345.016 54.3548 346.737 56.3072 346.737 58.7182Z" fill="white"/>
</g>
<path d="M317.802 101.92H310.899C310.899 68.3805 334.604 65.1913 343.002 65.1913C320.63 65.1913 317.802 101.92 317.802 101.92ZM342.817 63C301.056 63 307.336 107 307.336 107H378.719C378.719 107 384.579 63 342.817 63Z" fill="white"/>
<mask id="mask2_1_2" style="mask-type:luminance" maskUnits="userSpaceOnUse" x="295" y="120" width="22" height="38">
<path d="M295.652 120.627H316.93V157.077H295.652V120.627Z" fill="white"/>
</mask>
<g mask="url(#mask2_1_2)">
<path d="M298.138 124.142V153.45L313.084 149.517V124.142H298.138ZM295.652 157.007V121.314H315.576V151.761L295.652 157.007Z" fill="white"/>
</g>
<path d="M317 122.49C317 122.49 336.151 112.388 356.099 122.49L354.953 124.56C353.795 126.659 351.778 127.937 349.605 127.937H337.577C337.577 127.937 331.506 130.479 338.654 130.479C345.807 130.479 358.153 130.479 358.153 130.479C358.153 130.479 372.722 118.542 380 124.239L357.045 143.187L317 147V122.49Z" fill="white"/>
<path d="M78.7726 92.4432L78.8216 92.7489C79.2134 95.6394 79.0481 98.5437 78.3317 101.448C77.6092 104.338 76.4825 107.111 74.9518 109.758C73.4149 112.391 71.633 114.782 69.6124 116.929C67.5857 119.083 65.4365 120.861 63.1709 122.265C60.8992 123.654 58.6521 124.544 56.4355 124.933C54.3292 125.308 52.3453 125.127 50.4839 124.405C48.6224 123.682 47.0182 122.279 45.6833 120.18C44.3608 118.089 43.4423 115.205 42.9402 111.537C42.5177 108.41 42.5483 104.936 43.0382 101.115C43.5096 97.2791 44.3608 93.3603 45.5854 89.3582C46.8222 85.3421 48.4081 81.4303 50.3369 77.6296C52.2779 73.8151 54.4761 70.3201 56.9254 67.1518C59.3746 63.9834 62.0443 61.357 64.9344 59.2586C67.8367 57.1672 70.886 55.8401 74.07 55.2842C76.5683 54.8604 78.5828 54.9229 80.1197 55.4788C81.6504 56.0208 82.8261 56.9101 83.6466 58.1469C84.4609 59.3698 84.9814 60.7872 85.2141 62.3992C85.4712 64.3308 85.3916 66.3944 84.9692 68.597C84.5405 70.7857 83.9282 72.7659 83.1322 74.5446C82.3301 76.3095 81.4974 77.6018 80.634 78.4356C79.342 75.3784 77.9888 73.2662 76.5683 72.0989C75.1599 70.9316 73.7578 70.473 72.3556 70.7092C70.935 70.9524 69.5512 71.7584 68.2164 73.1272C66.8938 74.503 65.6447 76.2261 64.469 78.2967C63.2934 80.3742 62.2218 82.6323 61.2605 85.0781C60.2931 87.5239 59.4726 89.9696 58.7868 92.4154C58.1132 94.8612 57.6418 97.1263 57.3662 99.1968C57.0846 101.253 57.0478 102.963 57.2438 104.311C57.403 105.589 57.954 106.479 58.8847 106.979C59.8155 107.479 60.9788 107.611 62.3872 107.368C63.9853 107.09 65.7487 106.353 67.6775 105.144C69.6002 103.922 71.5473 102.247 73.5067 100.114C75.4661 97.967 77.2173 95.4101 78.7726 92.4432Z" fill="#15789A"/>
<path d="M80.0078 111.785C79.9282 111.173 80.0445 109.867 80.3507 107.866C80.6568 105.851 81.0732 103.384 81.5998 100.473C82.1386 97.5478 82.7387 94.3795 83.4122 90.9679C84.0796 87.5633 84.7348 84.1239 85.3716 80.6568C86.0206 77.1966 86.6023 73.917 87.1106 70.8181C87.631 67.7262 88.0229 65.0303 88.2862 62.7304C88.5434 60.4167 88.6046 58.7005 88.4576 57.5888C88.3719 56.9982 88.1943 56.3798 87.9188 55.7267C87.6371 55.0805 87.3187 54.3648 86.9636 53.5866L87.8943 53.4198C89.719 53.0863 91.5682 53.1697 93.4296 53.67C95.3033 54.1703 96.9198 55.0527 98.2791 56.3103C99.6507 57.5749 100.483 59.2424 100.777 61.313C100.888 62.2232 100.79 63.8352 100.483 66.1489C100.171 68.4488 99.6996 71.1725 99.0628 74.32C98.4383 77.4537 97.7525 80.8096 97.0055 84.381C96.2707 87.9385 95.5176 91.5237 94.7522 95.1368C93.999 98.736 93.3133 102.113 92.6948 105.281C92.0703 108.45 91.6049 111.215 91.2988 113.563C90.9865 115.919 90.9069 117.614 91.0538 118.649C91.0661 118.761 91.0906 118.858 91.1273 118.927C91.1579 118.983 91.1824 119.066 91.2008 119.178C89.8782 119.31 88.3658 119.059 86.6697 118.427C84.9675 117.802 83.4857 116.899 82.2121 115.731C80.9385 114.55 80.2037 113.23 80.0078 111.785Z" fill="#15789A"/>
<path d="M130.863 58.9629C129.767 59.1713 128.487 59.8175 127.018 60.9084C125.561 62.0062 124.158 63.4236 122.805 65.1607C121.464 66.9047 120.344 68.8154 119.45 70.886C118.55 72.9635 118.084 75.1105 118.054 77.3339C119.866 76.9101 121.654 76.0276 123.418 74.6936C125.181 73.3456 126.797 71.7754 128.267 69.9966C129.737 68.2179 130.869 66.4808 131.671 64.7716C132.467 63.0693 132.798 61.6796 132.651 60.6027C132.486 59.3242 131.892 58.7822 130.863 58.9629ZM114.159 92.6477C114.355 94.0929 114.998 95.3367 116.094 96.372C117.203 97.3933 118.507 98.116 120.013 98.5398C121.532 98.9706 122.952 99.0609 124.275 98.8177C125.855 98.5398 127.189 97.838 128.267 96.7055C129.345 95.559 129.767 94.1068 129.541 92.342C129.326 90.8412 128.543 89.5766 127.189 88.5344C125.83 87.4783 123.932 87.1656 121.483 87.5894C118.427 88.1314 115.984 89.8129 114.159 92.6477ZM98.4843 107.211C98.3863 106.475 98.5087 105.127 98.8516 103.181C99.1823 101.236 99.6476 98.8594 100.248 96.0384C100.836 93.2036 101.497 90.1394 102.232 86.839C102.966 83.5456 103.701 80.2105 104.436 76.8336C105.171 73.4638 105.807 70.2398 106.346 67.1618C106.897 64.0907 107.314 61.367 107.595 58.9907C107.889 56.6213 107.944 54.794 107.767 53.5155C107.7 53.0569 107.62 52.5844 107.522 52.0981C107.436 51.5978 107.338 51.0975 107.228 50.5973C107.179 50.229 107.387 49.9997 107.865 49.9024C109.855 49.555 111.71 49.555 113.425 49.9024C115.139 50.236 117.025 51.0906 119.082 52.4594C119.75 51.7229 120.699 50.9308 121.923 50.097C123.148 49.2632 124.428 48.4572 125.769 47.679C127.122 46.8869 128.438 46.2338 129.712 45.7335C130.998 45.2333 132.051 44.9136 132.872 44.7608C135.174 44.3578 137.237 44.5871 139.068 45.4556C140.893 46.3311 142.381 47.6443 143.526 49.4022C144.665 51.1462 145.399 53.2028 145.73 55.5722C146.134 58.5043 145.889 61.3531 144.995 64.1323C144.114 66.8977 142.822 69.413 141.126 71.692C139.442 73.9571 137.605 75.9026 135.615 77.5285C137.586 79.2169 139.099 81.0998 140.146 83.1704C141.187 85.2271 141.86 87.3115 142.154 89.4238C142.497 91.946 142.356 94.4543 141.738 96.9556C141.132 99.4431 140.121 101.729 138.701 103.82C137.292 105.898 135.578 107.642 133.557 109.045C131.549 110.456 129.32 111.373 126.871 111.797C124.697 112.186 122.395 112.096 119.964 111.519C117.527 110.928 115.053 109.726 112.543 107.906C112.31 107.948 112.053 108.476 111.759 109.49C111.465 110.491 111.245 111.595 111.098 112.797C110.951 114.006 110.877 114.986 110.877 115.744C109.194 116.042 107.461 115.98 105.685 115.549C103.922 115.104 102.36 114.208 101.007 112.853C99.6538 111.505 98.8149 109.622 98.4843 107.211Z" fill="#15789A"/>
<path d="M182.751 104.939C182.439 105.05 182.145 105.175 181.87 105.3C181.588 105.432 181.288 105.522 180.963 105.578C179.604 105.821 178.202 105.661 176.751 105.105C175.312 104.536 174.069 103.66 173.028 102.493C171.981 101.326 171.35 99.9916 171.142 98.4908C171.007 97.4763 171.093 96.1145 171.387 94.4052C171.681 92.6821 172.036 90.9172 172.465 89.0968C172.905 87.2833 173.224 85.7478 173.42 84.4832C170.199 91.5982 166.917 97.0455 163.574 100.825C160.243 104.605 157.236 106.731 154.561 107.19C152.503 107.565 150.746 106.954 149.295 105.356C147.856 103.764 146.895 101.187 146.405 97.6292C146.013 94.6832 146.05 91.4731 146.527 87.9851C146.999 84.5041 147.691 80.9466 148.609 77.3127C149.54 73.6649 150.483 70.0588 151.45 66.5013C152.411 62.9438 153.152 59.6087 153.679 56.4959C154.199 53.3831 154.297 50.6455 153.973 48.2692C153.826 47.088 153.532 46.1292 153.091 45.4066C153.581 45.2259 154.059 45.0661 154.536 44.9341C155.008 44.7882 155.473 44.6701 155.932 44.5728C157.61 44.2949 159.202 44.406 160.708 44.9063C162.227 45.4066 163.506 46.3098 164.554 47.6022C165.613 48.8807 166.292 50.5899 166.586 52.7161C166.782 54.1613 166.635 55.9817 166.146 58.1635C165.656 60.3521 165.007 62.7076 164.211 65.2228C163.427 67.7242 162.631 70.2186 161.835 72.6991C161.033 75.1865 160.371 77.4238 159.851 79.4249C159.324 81.426 159.141 82.9963 159.288 84.1219C159.447 85.3448 160.096 85.859 161.223 85.6505C162.086 85.5046 163.157 84.5388 164.431 82.7601C165.705 80.9813 167.064 78.6884 168.521 75.8674C169.972 73.0326 171.411 69.9337 172.832 66.5569C174.253 63.187 175.538 59.7963 176.702 56.3847C177.877 52.9593 178.79 49.7909 179.445 46.8796C180.112 43.9752 180.449 41.592 180.449 39.7368C183.302 39.6118 185.666 40.119 187.527 41.2654C189.401 42.4188 190.54 44.3782 190.932 47.1575C191.207 49.2142 191.152 51.6808 190.76 54.5504C190.369 57.4061 189.787 60.498 189.021 63.8332C188.25 67.1683 187.417 70.6007 186.523 74.1165C185.641 77.6392 184.821 81.1481 184.074 84.65C183.321 88.138 182.776 91.4314 182.433 94.5442C182.09 97.657 182.078 100.457 182.408 102.938C182.457 103.292 182.506 103.632 182.555 103.966C182.604 104.299 182.666 104.626 182.751 104.939Z" fill="#15789A"/>
<path d="M209.071 98.9495C207.534 99.2274 205.715 99.3872 203.609 99.4219C201.503 99.4636 199.421 99.2204 197.363 98.6993C195.306 98.1852 193.53 97.2402 192.049 95.8645C190.567 94.4957 189.648 92.5502 189.305 90.028C189.03 88.013 189.244 85.9633 189.942 83.8858C190.628 81.8152 191.7 80.1199 193.151 78.7997C194.424 81.0092 196.041 82.6768 198 83.8024C199.972 84.9141 202.09 85.5742 204.344 85.7757C206.609 85.9841 208.807 85.8869 210.932 85.4978C213.149 85.1087 215.175 84.5111 217.006 83.6912C218.831 82.8783 220.27 81.982 221.317 80.9953C222.358 80.0156 222.823 79.0985 222.713 78.2438C222.566 77.2086 221.911 76.5693 220.754 76.3261C219.59 76.0899 218.115 75.9926 216.321 76.0482C214.52 76.0899 212.61 76.1177 210.589 76.1316C208.581 76.1316 206.646 75.9023 204.785 75.4368C202.923 74.9574 201.331 74.061 200.009 72.7409C198.686 71.4068 197.853 69.4335 197.51 66.821C197.033 63.3608 197.412 59.9562 198.637 56.6211C199.862 53.272 201.637 50.1106 203.976 47.1437C206.309 44.163 208.961 41.474 211.936 39.0838C214.924 36.6936 217.968 34.7343 221.072 33.1918C224.17 31.6354 227.048 30.6348 229.693 30.1901C232.369 29.7107 234.647 29.8844 236.527 30.7182C238.4 31.552 239.503 33.1848 239.833 35.6097C240.078 37.3329 239.962 39.0977 239.49 40.8904C239.013 42.6899 238.425 44.4409 237.727 46.1432C237.023 47.8525 236.417 49.4922 235.914 51.0625C235.406 52.6189 235.21 54.0294 235.327 55.287C232.681 55.6622 230.655 55.1897 229.253 53.8696C227.844 52.5564 226.956 50.5275 226.583 47.783C226.497 47.1715 226.436 46.5184 226.387 45.8097C226.338 45.1079 226.326 44.3575 226.362 43.5585C224.923 44.2811 223.331 45.2399 221.586 46.4211C219.835 47.6093 218.194 48.9155 216.663 50.3399C215.145 51.7504 213.92 53.2304 212.99 54.7867C212.059 56.3292 211.691 57.8162 211.887 59.2614C212.065 60.5954 212.732 61.6168 213.896 62.3186C215.071 63.0065 216.516 63.5137 218.231 63.8472C219.945 64.1668 221.758 64.4795 223.668 64.7921C225.579 65.1118 227.403 65.5703 229.155 66.1818C230.918 66.7793 232.412 67.6687 233.637 68.8499C234.861 70.0172 235.621 71.6709 235.914 73.797C236.239 76.1524 235.731 78.6607 234.396 81.3288C233.055 83.9831 231.096 86.54 228.518 88.9997C225.952 91.4663 222.989 93.5785 219.627 95.3364C216.259 97.1012 212.745 98.3033 209.071 98.9495Z" fill="#15789A"/>
<path d="M73.4316 86.336L73.4806 86.6417C73.8725 89.5322 73.7071 92.4365 72.9907 95.3409C72.2682 98.2313 71.1416 101.004 69.6108 103.651C68.0739 106.284 66.2921 108.674 64.2714 110.821C62.2447 112.975 60.0955 114.754 57.8299 116.158C55.5583 117.547 53.3111 118.437 51.0945 118.826C48.9882 119.201 47.0043 119.02 45.1429 118.298C43.2815 117.575 41.6772 116.172 40.3424 114.073C39.0198 111.982 38.1013 109.098 37.5992 105.43C37.1767 102.303 37.2073 98.8289 37.6972 95.0074C38.1687 91.172 39.0198 87.2532 40.2444 83.251C41.4813 79.235 43.0672 75.3231 44.9959 71.5225C46.937 67.7079 49.1351 64.213 51.5844 61.0446C54.0336 57.8762 56.7033 55.2498 59.5934 53.1514C62.4957 51.06 65.545 49.7329 68.7291 49.1771C71.2273 48.7532 73.2418 48.8158 74.7787 49.3716C76.3095 49.9136 77.4851 50.803 78.3056 52.0397C79.12 53.2626 79.6404 54.68 79.8731 56.292C80.1303 58.2236 80.0507 60.2872 79.6282 62.4898C79.1996 64.6785 78.5873 66.6587 77.7912 68.4375C76.9891 70.2023 76.1564 71.4947 75.293 72.3285C74.001 69.2712 72.6478 67.159 71.2273 65.9917C69.819 64.8244 68.4168 64.3658 67.0146 64.6021C65.594 64.8452 64.2102 65.6512 62.8754 67.02C61.5528 68.3958 60.3037 70.1189 59.128 72.1895C57.9524 74.267 56.8809 76.5252 55.9195 78.9709C54.9521 81.4167 54.1316 83.8625 53.4458 86.3082C52.7723 88.754 52.3008 91.0191 52.0252 93.0897C51.7436 95.1463 51.7068 96.8556 51.9028 98.2035C52.062 99.482 52.6131 100.371 53.5438 100.872C54.4745 101.372 55.6379 101.504 57.0462 101.261C58.6443 100.983 60.4078 100.246 62.3365 99.0373C64.2592 97.8144 66.2063 96.1399 68.1657 94.0068C70.1251 91.8598 71.8763 89.3029 73.4316 86.336Z" fill="white"/>
<path d="M74.6668 105.677C74.5872 105.066 74.7035 103.76 75.0097 101.759C75.3158 99.7437 75.7322 97.2771 76.2588 94.3658C76.7976 91.4406 77.3977 88.2722 78.0712 84.8607C78.7387 81.456 79.3938 78.0167 80.0306 74.5495C80.6797 71.0893 81.2614 67.8098 81.7696 64.7109C82.29 61.619 82.6819 58.9231 82.9452 56.6232C83.2024 54.3095 83.2636 52.5933 83.1167 51.4815C83.0309 50.8909 82.8534 50.2726 82.5778 49.6194C82.2962 48.9732 81.9778 48.2576 81.6226 47.4794L82.5533 47.3126C84.378 46.9791 86.2272 47.0625 88.0886 47.5628C89.9623 48.063 91.5788 48.9455 92.9381 50.2031C94.3097 51.4676 95.1424 53.1352 95.4363 55.2058C95.5466 56.116 95.4486 57.728 95.1424 60.0417C94.8302 62.3416 94.3587 65.0653 93.7219 68.2128C93.0973 71.3464 92.4115 74.7024 91.6645 78.2738C90.9297 81.8313 90.1766 85.4165 89.4112 89.0296C88.6581 92.6287 87.9723 96.0056 87.3539 99.1739C86.7293 102.342 86.2639 105.108 85.9578 107.456C85.6455 109.812 85.5659 111.507 85.7129 112.542C85.7251 112.653 85.7496 112.751 85.7863 112.82C85.817 112.876 85.8414 112.959 85.8598 113.07C84.5372 113.202 83.0248 112.952 81.3287 112.32C79.6265 111.695 78.1447 110.791 76.8711 109.624C75.5975 108.443 74.8627 107.123 74.6668 105.677Z" fill="white"/>
<path d="M125.522 52.8557C124.426 53.0642 123.146 53.7103 121.677 54.8012C120.22 55.899 118.817 57.3164 117.464 59.0535C116.123 60.7975 115.003 62.7082 114.109 64.7788C113.209 66.8563 112.743 69.0033 112.713 71.2267C114.525 70.8029 116.313 69.9205 118.077 68.5864C119.84 67.2385 121.456 65.6682 122.926 63.8894C124.396 62.1107 125.528 60.3737 126.33 58.6644C127.126 56.9621 127.457 55.5725 127.31 54.4955C127.145 53.217 126.551 52.6751 125.522 52.8557ZM108.818 86.5405C109.014 87.9858 109.657 89.2295 110.753 90.2648C111.862 91.2862 113.166 92.0088 114.672 92.4326C116.191 92.8634 117.611 92.9537 118.934 92.7105C120.514 92.4326 121.848 91.7308 122.926 90.5983C124.004 89.4518 124.426 87.9997 124.2 86.2348C123.985 84.734 123.202 83.4694 121.848 82.4272C120.489 81.3711 118.591 81.0584 116.142 81.4823C113.086 82.0242 110.643 83.7057 108.818 86.5405ZM93.1433 101.104C93.0453 100.367 93.1678 99.0195 93.5107 97.074C93.8413 95.1285 94.3067 92.7522 94.9067 89.9313C95.4946 87.0964 96.1558 84.0322 96.8906 80.7319C97.6254 77.4384 98.3602 74.1033 99.0949 70.7265C99.8297 67.3566 100.467 64.1326 101.005 61.0546C101.556 57.9835 101.973 55.2598 102.254 52.8835C102.548 50.5142 102.603 48.6868 102.426 47.4083C102.359 46.9497 102.279 46.4773 102.181 45.9909C102.095 45.4906 101.997 44.9904 101.887 44.4901C101.838 44.1218 102.046 43.8925 102.524 43.7953C104.514 43.4479 106.369 43.4479 108.084 43.7953C109.798 44.1288 111.684 44.9834 113.741 46.3522C114.409 45.6157 115.358 44.8236 116.583 43.9898C117.807 43.156 119.087 42.35 120.428 41.5718C121.781 40.7797 123.097 40.1266 124.371 39.6263C125.657 39.1261 126.71 38.8065 127.531 38.6536C129.833 38.2506 131.896 38.4799 133.727 39.3484C135.552 40.2239 137.04 41.5371 138.185 43.295C139.324 45.039 140.058 47.0957 140.389 49.465C140.793 52.3971 140.548 55.2459 139.654 58.0252C138.773 60.7905 137.481 63.3058 135.785 65.5848C134.101 67.8499 132.264 69.7954 130.274 71.4213C132.245 73.1097 133.758 74.9926 134.805 77.0632C135.846 79.1199 136.519 81.2043 136.813 83.3166C137.156 85.8388 137.015 88.3471 136.397 90.8484C135.791 93.3359 134.78 95.6218 133.36 97.7132C131.951 99.7908 130.237 101.535 128.216 102.938C126.208 104.349 123.979 105.266 121.53 105.69C119.356 106.079 117.054 105.989 114.623 105.412C112.186 104.821 109.712 103.619 107.202 101.799C106.969 101.84 106.712 102.369 106.418 103.383C106.124 104.384 105.904 105.488 105.757 106.69C105.61 107.899 105.536 108.879 105.536 109.636C103.853 109.935 102.12 109.873 100.344 109.442C98.5806 108.997 97.0192 108.101 95.666 106.746C94.3128 105.398 93.4739 103.515 93.1433 101.104Z" fill="white"/>
<path d="M177.41 98.8315C177.098 98.9427 176.804 99.0677 176.529 99.1928C176.247 99.3248 175.947 99.4151 175.623 99.4707C174.263 99.7139 172.861 99.5541 171.41 98.9982C169.971 98.4285 168.728 97.553 167.687 96.3857C166.64 95.2184 166.009 93.8844 165.801 92.3836C165.666 91.3691 165.752 90.0073 166.046 88.298C166.34 86.5749 166.695 84.81 167.124 82.9896C167.565 81.1761 167.883 79.6406 168.079 78.376C164.858 85.491 161.576 90.9383 158.233 94.7181C154.902 98.498 151.895 100.624 149.22 101.083C147.162 101.458 145.405 100.846 143.954 99.2484C142.515 97.6572 141.554 95.0795 141.064 91.522C140.672 88.5759 140.709 85.3659 141.186 81.8779C141.658 78.3968 142.35 74.8394 143.268 71.2055C144.199 67.5577 145.142 63.9516 146.109 60.3941C147.07 56.8366 147.811 53.5015 148.338 50.3887C148.858 47.2759 148.956 44.5383 148.632 42.162C148.485 40.9808 148.191 40.022 147.75 39.2994C148.24 39.1187 148.718 38.9589 149.195 38.8269C149.667 38.681 150.132 38.5628 150.591 38.4656C152.269 38.1876 153.861 38.2988 155.367 38.7991C156.886 39.2994 158.166 40.2026 159.213 41.495C160.272 42.7735 160.952 44.4827 161.245 46.6089C161.441 48.0541 161.294 49.8745 160.805 52.0562C160.315 54.2449 159.666 56.6004 158.87 59.1156C158.086 61.617 157.29 64.1114 156.494 66.5919C155.692 69.0793 155.031 71.3166 154.51 73.3177C153.983 75.3188 153.8 76.8891 153.947 78.0147C154.106 79.2376 154.755 79.7517 155.882 79.5433C156.745 79.3974 157.817 78.4316 159.09 76.6528C160.364 74.8741 161.723 72.5812 163.18 69.7602C164.632 66.9254 166.07 63.8265 167.491 60.4497C168.912 57.0798 170.197 53.6891 171.361 50.2775C172.536 46.852 173.449 43.6837 174.104 40.7724C174.771 37.868 175.108 35.4848 175.108 33.6296C177.962 33.5046 180.325 34.0118 182.186 35.1582C184.06 36.3116 185.199 38.271 185.591 41.0503C185.866 43.107 185.811 45.5736 185.419 48.4432C185.028 51.2989 184.446 54.3908 183.681 57.726C182.909 61.0611 182.076 64.4935 181.182 68.0093C180.301 71.532 179.48 75.0409 178.733 78.5428C177.98 82.0308 177.435 85.3242 177.092 88.437C176.749 91.5498 176.737 94.3499 177.068 96.8304C177.117 97.1848 177.166 97.5252 177.215 97.8587C177.263 98.1922 177.325 98.5188 177.41 98.8315Z" fill="white"/>
<path d="M203.73 92.8423C202.193 93.1202 200.374 93.28 198.268 93.3147C196.162 93.3564 194.08 93.1132 192.022 92.5921C189.965 92.078 188.189 91.133 186.708 89.7573C185.226 88.3885 184.307 86.443 183.964 83.9208C183.689 81.9058 183.903 79.8561 184.601 77.7786C185.287 75.708 186.359 74.0127 187.81 72.6925C189.083 74.902 190.7 76.5696 192.659 77.6952C194.631 78.8069 196.749 79.467 199.003 79.6685C201.268 79.8769 203.467 79.7797 205.591 79.3906C207.808 79.0015 209.835 78.4039 211.665 77.584C213.49 76.7711 214.929 75.8748 215.976 74.8881C217.017 73.9084 217.482 72.9913 217.372 72.1366C217.225 71.1014 216.57 70.4621 215.413 70.2189C214.249 69.9827 212.774 69.8854 210.98 69.941C209.179 69.9827 207.269 70.0105 205.248 70.0244C203.24 70.0244 201.305 69.7951 199.444 69.3296C197.582 68.8501 195.99 67.9538 194.668 66.6337C193.345 65.2996 192.512 63.3263 192.169 60.7138C191.692 57.2536 192.071 53.849 193.296 50.5139C194.521 47.1648 196.296 44.0034 198.635 41.0365C200.968 38.0558 203.62 35.3668 206.595 32.9766C209.583 30.5864 212.627 28.6271 215.731 27.0846C218.829 25.5282 221.707 24.5276 224.352 24.0829C227.028 23.6035 229.306 23.7772 231.186 24.611C233.059 25.4448 234.162 27.0776 234.492 29.5025C234.737 31.2257 234.621 32.9905 234.149 34.7832C233.672 36.5827 233.084 38.3337 232.386 40.036C231.682 41.7452 231.076 43.385 230.573 44.9553C230.065 46.5117 229.869 47.9222 229.986 49.1798C227.34 49.555 225.314 49.0825 223.912 47.7624C222.503 46.4492 221.615 44.4203 221.242 41.6758C221.156 41.0643 221.095 40.4112 221.046 39.7025C220.997 39.0007 220.985 38.2503 221.021 37.4513C219.583 38.1739 217.99 39.1327 216.245 40.3139C214.494 41.5021 212.853 42.8083 211.322 44.2327C209.804 45.6432 208.579 47.1231 207.649 48.6795C206.718 50.222 206.35 51.709 206.546 53.1542C206.724 54.4882 207.391 55.5096 208.555 56.2114C209.73 56.8993 211.175 57.4065 212.89 57.74C214.604 58.0596 216.417 58.3723 218.327 58.6849C220.238 59.0046 222.062 59.4631 223.814 60.0746C225.577 60.6721 227.071 61.5615 228.296 62.7427C229.52 63.91 230.28 65.5636 230.573 67.6898C230.898 70.0452 230.39 72.5535 229.055 75.2216C227.714 77.8758 225.755 80.4328 223.177 82.8924C220.611 85.3591 217.648 87.4713 214.286 89.2292C210.918 90.994 207.404 92.1961 203.73 92.8423Z" fill="white"/>
<path d="M232.357 157.881C230.41 161.216 228.224 164.162 225.793 166.719C223.374 169.262 220.87 171.305 218.274 172.861C215.69 174.418 213.179 175.411 210.73 175.835C206.156 176.655 202.703 175.988 200.37 173.834C198.031 171.687 196.598 168.651 196.059 164.718C195.618 161.515 195.692 157.951 196.279 154.018C196.849 150.092 197.829 146.028 199.219 141.817C200.621 137.613 202.329 133.521 204.337 129.533C206.358 125.551 208.599 121.903 211.048 118.582C213.51 115.268 216.082 112.537 218.763 110.383C221.458 108.215 224.164 106.902 226.895 106.437C230.434 105.811 233.098 106.374 234.879 108.132C236.674 109.876 237.757 112.106 238.137 114.83C238.394 116.741 238.345 118.77 237.99 120.917C237.629 123.05 237.01 125.072 236.129 126.976C235.247 128.886 234.151 130.498 232.847 131.812C231.867 128.365 230.746 125.975 229.491 124.641C228.248 123.307 226.919 122.765 225.499 123.001C223.962 123.279 222.419 124.321 220.87 126.114C219.333 127.914 217.863 130.144 216.461 132.812C215.053 135.48 213.847 138.315 212.836 141.317C211.838 144.318 211.085 147.181 210.583 149.905C210.093 152.628 209.971 154.9 210.216 156.714C210.344 157.68 210.669 158.632 211.195 159.577C211.734 160.508 212.573 160.869 213.718 160.66C215.12 160.424 216.461 159.743 217.735 158.632C219.021 157.52 220.098 156.29 220.968 154.935C221.831 153.587 222.29 152.455 222.339 151.544C222.045 151.656 221.752 151.76 221.458 151.85C221.164 151.927 220.876 151.989 220.6 152.045C219.045 152.309 217.912 152.128 217.196 151.517C216.492 150.905 216.069 150.057 215.922 148.96C215.788 147.924 215.88 146.792 216.192 145.569C216.516 144.332 216.988 143.123 217.612 141.956C218.249 140.775 218.972 139.844 219.792 139.177L220.796 139.01C222.474 138.718 223.968 138.329 225.278 137.843C226.583 137.342 227.911 136.863 229.271 136.397C230.624 135.918 232.185 135.522 233.949 135.202C235.222 134.98 236.288 135.272 237.157 136.064C238.039 136.863 238.584 138.009 238.798 139.51C239.074 141.553 238.578 144.235 237.304 147.57C236.031 150.905 234.377 154.345 232.357 157.881Z" fill="#15789A"/>
<path d="M259.343 116.33C258.345 116.497 257.335 116.935 256.306 117.637C255.29 118.324 254.279 119.137 253.269 120.082C254.787 120.138 256.294 120.638 257.8 121.583C259.319 122.528 260.745 123.973 262.086 125.919C261.07 125.773 260.108 125.78 259.196 125.947C257.384 126.266 255.792 127.114 254.42 128.504C253.048 129.879 251.861 131.575 250.869 133.59C249.889 135.591 249.111 137.745 248.542 140.038C247.985 142.317 247.617 144.561 247.44 146.763C247.274 148.952 247.305 150.87 247.538 152.517C247.832 154.684 248.419 156.199 249.301 157.047C250.183 157.881 251.212 158.186 252.387 157.964C254.298 157.63 256.067 156.644 257.702 154.99C259.331 153.343 260.8 151.28 262.111 148.792C263.433 146.291 264.511 143.595 265.344 140.705C266.176 137.8 266.752 134.91 267.083 132.033C267.426 129.143 267.438 126.53 267.132 124.196C266.77 121.583 265.962 119.52 264.707 117.998C263.464 116.483 261.676 115.927 259.343 116.33ZM234.924 157.158C234.226 151.954 234.367 146.972 235.365 142.205C236.357 137.446 237.888 133.333 239.945 129.865C239.829 127.031 240.392 124.217 241.635 121.416C242.89 118.623 244.599 116.018 246.754 113.607C248.909 111.203 251.322 109.181 254.004 107.548C256.698 105.901 259.423 104.838 262.184 104.352C265.693 103.74 268.65 104.074 271.05 105.352C273.451 106.617 275.361 108.569 276.782 111.216C278.214 113.871 279.182 116.942 279.672 120.444C280.174 124.223 280.168 128.295 279.647 132.645C279.121 137.001 278.104 141.33 276.586 145.624C275.079 149.925 273.114 153.906 270.683 157.575C268.264 161.243 265.442 164.349 262.209 166.885C258.976 169.408 255.357 171.013 251.358 171.694C248.726 172.159 246.264 171.971 243.962 171.138C241.66 170.304 239.706 168.748 238.108 166.468C236.522 164.176 235.463 161.07 234.924 157.158Z" fill="#15789A"/>
<path d="M227.016 151.774C225.069 155.109 222.883 158.055 220.452 160.612C218.033 163.155 215.529 165.198 212.933 166.754C210.349 168.311 207.838 169.304 205.389 169.728C200.815 170.548 197.362 169.881 195.029 167.727C192.69 165.58 191.257 162.544 190.718 158.611C190.277 155.408 190.351 151.843 190.939 147.911C191.508 143.985 192.488 139.92 193.878 135.71C195.28 131.506 196.988 127.414 198.997 123.425C201.017 119.444 203.258 115.796 205.707 112.475C208.169 109.161 210.741 106.43 213.423 104.276C216.117 102.108 218.823 100.795 221.554 100.33C225.093 99.7042 227.757 100.267 229.539 102.025C231.333 103.769 232.416 105.999 232.796 108.723C233.053 110.634 233.004 112.663 232.649 114.81C232.288 116.943 231.669 118.965 230.788 120.868C229.906 122.779 228.81 124.391 227.506 125.704C226.526 122.258 225.405 119.868 224.15 118.534C222.907 117.2 221.579 116.658 220.158 116.894C218.621 117.172 217.078 118.214 215.529 120.007C213.992 121.806 212.522 124.037 211.12 126.705C209.712 129.373 208.506 132.208 207.495 135.209C206.497 138.211 205.744 141.074 205.242 143.797C204.752 146.521 204.63 148.793 204.875 150.607C205.003 151.572 205.328 152.524 205.854 153.469C206.393 154.4 207.232 154.762 208.377 154.553C209.779 154.317 211.12 153.636 212.394 152.524C213.68 151.413 214.757 150.183 215.627 148.828C216.49 147.48 216.949 146.347 216.998 145.437C216.705 145.548 216.411 145.653 216.117 145.743C215.823 145.819 215.535 145.882 215.259 145.937C213.704 146.202 212.571 146.021 211.855 145.409C211.151 144.798 210.728 143.95 210.581 142.852C210.447 141.817 210.539 140.685 210.851 139.462C211.175 138.225 211.647 137.016 212.271 135.849C212.908 134.667 213.631 133.736 214.451 133.069L215.455 132.903C217.133 132.611 218.627 132.222 219.938 131.735C221.242 131.235 222.57 130.756 223.93 130.29C225.283 129.811 226.844 129.415 228.608 129.095C229.881 128.873 230.947 129.165 231.816 129.957C232.698 130.756 233.243 131.902 233.457 133.403C233.733 135.446 233.237 138.128 231.963 141.463C230.69 144.798 229.036 148.237 227.016 151.774Z" fill="#D6811C"/>
<path d="M254.002 110.223C253.004 110.39 251.994 110.828 250.965 111.529C249.949 112.217 248.938 113.03 247.928 113.975C249.446 114.031 250.953 114.531 252.459 115.476C253.978 116.421 255.404 117.866 256.745 119.812C255.729 119.666 254.767 119.673 253.855 119.839C252.043 120.159 250.451 121.007 249.079 122.396C247.707 123.772 246.52 125.467 245.528 127.482C244.548 129.484 243.77 131.637 243.201 133.93C242.644 136.209 242.276 138.454 242.099 140.656C241.933 142.845 241.964 144.763 242.197 146.409C242.491 148.577 243.078 150.092 243.96 150.94C244.842 151.773 245.871 152.079 247.046 151.857C248.957 151.523 250.726 150.537 252.361 148.883C253.99 147.236 255.459 145.173 256.77 142.685C258.092 140.184 259.17 137.488 260.003 134.597C260.835 131.693 261.411 128.803 261.742 125.926C262.085 123.036 262.097 120.423 261.791 118.088C261.429 115.476 260.621 113.412 259.366 111.891C258.123 110.376 256.335 109.82 254.002 110.223ZM229.583 151.051C228.885 145.847 229.026 140.865 230.024 136.098C231.016 131.339 232.547 127.225 234.604 123.758C234.488 120.923 235.051 118.109 236.294 115.309C237.549 112.516 239.258 109.91 241.413 107.499C243.568 105.095 245.981 103.073 248.663 101.441C251.357 99.7939 254.082 98.7308 256.843 98.2445C260.352 97.633 263.309 97.9665 265.709 99.245C268.11 100.51 270.02 102.462 271.441 105.109C272.873 107.763 273.841 110.835 274.331 114.336C274.833 118.116 274.827 122.188 274.306 126.537C273.78 130.894 272.763 135.223 271.245 139.517C269.738 143.818 267.773 147.799 265.342 151.468C262.923 155.136 260.101 158.242 256.868 160.778C253.635 163.3 250.016 164.905 246.017 165.586C243.385 166.052 240.923 165.864 238.621 165.03C236.319 164.197 234.365 162.64 232.767 160.361C231.181 158.068 230.122 154.963 229.583 151.051Z" fill="#D6811C"/>
</svg>
