<svg width="360" height="225" viewBox="0 0 360 225" fill="none" xmlns="http://www.w3.org/2000/svg">
<path d="M118.636 134.108L118.699 134.42C119.157 137.379 118.959 140.337 118.115 143.295C117.282 146.254 115.98 149.087 114.22 151.795C112.454 154.504 110.386 156.962 108.011 159.17C105.647 161.379 103.147 163.207 100.511 164.649C97.8706 166.082 95.2509 166.998 92.6571 167.399C90.2404 167.764 87.9488 167.566 85.7821 166.816C83.6154 166.066 81.7509 164.629 80.1988 162.504C78.6571 160.368 77.5998 157.431 77.0321 153.691C76.5321 150.457 76.5634 146.879 77.1154 142.962C77.6675 139.035 78.6675 135.014 80.1154 130.899C81.5738 126.79 83.4123 122.795 85.6363 118.92C87.8706 115.035 90.4123 111.462 93.2613 108.212C96.105 104.962 99.2196 102.269 102.595 100.129C105.97 97.9932 109.501 96.639 113.199 96.0661C116.084 95.6234 118.428 95.6807 120.22 96.2327C122.011 96.79 123.376 97.7015 124.324 98.9619C125.282 100.228 125.886 101.67 126.136 103.295C126.438 105.311 126.35 107.436 125.865 109.67C125.376 111.91 124.662 113.936 123.72 115.754C122.787 117.561 121.824 118.899 120.824 119.774C119.324 116.649 117.746 114.483 116.095 113.274C114.438 112.066 112.793 111.597 111.157 111.858C109.532 112.108 107.949 112.936 106.407 114.337C104.865 115.728 103.407 117.493 102.032 119.629C100.668 121.754 99.4175 124.066 98.2821 126.566C97.1571 129.066 96.204 131.566 95.4279 134.066C94.6623 136.556 94.1154 138.858 93.7821 140.983C93.4592 143.108 93.4071 144.858 93.6154 146.233C93.8238 147.556 94.4592 148.472 95.5321 148.983C96.6154 149.483 97.98 149.608 99.6363 149.358C101.47 149.082 103.501 148.326 105.74 147.087C107.975 145.853 110.23 144.144 112.511 141.962C114.803 139.769 116.845 137.149 118.636 134.108Z" fill="#FF3131" fill-opacity="0.4"/>
<path d="M120.101 153.904C120.007 153.268 120.137 151.925 120.496 149.883C120.84 147.831 121.319 145.31 121.934 142.32C122.559 139.32 123.257 136.081 124.038 132.591C124.83 129.091 125.59 125.57 126.33 122.029C127.08 118.487 127.746 115.133 128.33 111.966C128.924 108.789 129.377 106.018 129.684 103.654C130.002 101.279 130.08 99.5392 129.913 98.4246C129.814 97.7892 129.606 97.1434 129.288 96.4871C128.965 95.8204 128.585 95.1017 128.142 94.3204L129.246 94.1538C131.371 93.8204 133.523 93.9038 135.705 94.4038C137.882 94.9038 139.767 95.7996 141.351 97.0913C142.934 98.3829 143.882 100.086 144.205 102.195C144.356 103.154 144.246 104.815 143.871 107.175C143.507 109.524 142.965 112.31 142.246 115.529C141.523 118.753 140.726 122.185 139.851 125.82C138.976 129.461 138.101 133.133 137.226 136.841C136.351 140.539 135.549 144.008 134.83 147.258C134.121 150.508 133.585 153.336 133.226 155.737C132.861 158.143 132.767 159.873 132.934 160.925C132.944 161.039 132.965 161.128 132.996 161.195C133.038 161.268 133.069 161.352 133.101 161.445C131.528 161.586 129.767 161.336 127.809 160.695C125.851 160.06 124.132 159.133 122.663 157.925C121.189 156.716 120.34 155.378 120.101 153.904Z" fill="#FF3131" fill-opacity="0.4"/>
<path d="M179.155 99.817C177.89 100.015 176.411 100.671 174.718 101.796C173.036 102.911 171.411 104.359 169.843 106.15C168.27 107.932 166.968 109.89 165.926 112.025C164.884 114.15 164.343 116.353 164.301 118.63C166.395 118.202 168.473 117.296 170.53 115.921C172.582 114.546 174.452 112.952 176.134 111.13C177.827 109.312 179.145 107.536 180.093 105.796C181.051 104.046 181.437 102.619 181.259 101.505C181.062 100.187 180.364 99.6243 179.155 99.817ZM159.78 134.317C159.999 135.807 160.759 137.067 162.051 138.109C163.343 139.15 164.853 139.895 166.593 140.338C168.343 140.77 169.989 140.869 171.53 140.63C173.364 140.338 174.905 139.609 176.155 138.442C177.405 137.265 177.895 135.786 177.634 134.005C177.395 132.463 176.489 131.161 174.905 130.088C173.332 129.005 171.134 128.682 168.301 129.109C164.759 129.666 161.916 131.4 159.78 134.317ZM141.551 149.213C141.442 148.463 141.588 147.088 141.989 145.088C142.379 143.077 142.921 140.63 143.614 137.755C144.291 134.869 145.062 131.734 145.926 128.359C146.786 124.973 147.64 121.557 148.489 118.109C149.332 114.65 150.077 111.353 150.718 108.213C151.369 105.062 151.853 102.27 152.176 99.8379C152.509 97.4108 152.572 95.5358 152.364 94.2129C152.291 93.7441 152.202 93.2545 152.093 92.7545C151.994 92.2545 151.874 91.7545 151.739 91.2545C151.681 90.8795 151.916 90.6504 152.447 90.567C154.765 90.2077 156.926 90.2024 158.926 90.5462C160.926 90.8795 163.103 91.7545 165.468 93.1712C166.27 92.3952 167.374 91.5774 168.78 90.7129C170.197 89.8379 171.697 89.015 173.28 88.2337C174.864 87.4577 176.39 86.8066 177.864 86.2754C179.348 85.7493 180.572 85.4108 181.53 85.2545C184.207 84.8379 186.603 85.0774 188.718 85.9629C190.827 86.8535 192.551 88.2024 193.884 90.0045C195.218 91.7962 196.072 93.9108 196.447 96.3379C196.905 99.3535 196.619 102.27 195.593 105.088C194.577 107.911 193.093 110.484 191.134 112.817C189.176 115.15 187.03 117.15 184.697 118.817C186.999 120.567 188.765 122.494 189.989 124.588C191.207 126.687 191.989 128.817 192.322 130.984C192.723 133.567 192.562 136.13 191.843 138.671C191.119 141.213 189.937 143.562 188.301 145.713C186.676 147.853 184.687 149.645 182.343 151.088C179.994 152.536 177.39 153.478 174.53 153.921C171.999 154.312 169.327 154.213 166.509 153.63C163.687 153.036 160.812 151.807 157.884 149.942C157.634 149.984 157.332 150.515 156.989 151.525C156.655 152.541 156.395 153.671 156.218 154.921C156.036 156.161 155.952 157.161 155.968 157.921C154.02 158.213 152.009 158.145 149.926 157.713C147.853 157.286 146.036 156.38 144.468 155.005C142.916 153.619 141.942 151.687 141.551 149.213Z" fill="#FF3131" fill-opacity="0.4"/>
<path d="M239.5 146.858C239.135 146.983 238.792 147.119 238.458 147.254C238.125 147.379 237.781 147.473 237.437 147.525C235.838 147.775 234.193 147.619 232.5 147.046C230.818 146.478 229.364 145.598 228.146 144.4C226.937 143.207 226.213 141.837 225.979 140.296C225.823 139.244 225.922 137.837 226.271 136.087C226.63 134.327 227.052 132.514 227.542 130.65C228.042 128.79 228.406 127.228 228.646 125.962C224.906 133.228 221.094 138.796 217.208 142.671C213.318 146.546 209.818 148.723 206.708 149.191C204.333 149.566 202.297 148.941 200.604 147.316C198.922 145.681 197.802 143.035 197.25 139.379C196.776 136.379 196.818 133.098 197.375 129.525C197.943 125.957 198.76 122.311 199.833 118.587C200.901 114.853 201.989 111.171 203.104 107.546C204.229 103.91 205.088 100.494 205.687 97.2956C206.297 94.0873 206.417 91.2748 206.042 88.8581C205.859 87.6498 205.521 86.6706 205.021 85.9206C205.604 85.7123 206.167 85.5456 206.708 85.4206C207.26 85.2852 207.802 85.1706 208.333 85.0873C210.276 84.7852 212.125 84.8894 213.875 85.3998C215.625 85.9154 217.114 86.8373 218.354 88.1706C219.588 89.4935 220.375 91.2331 220.708 93.3998C220.927 94.8894 220.755 96.754 220.187 99.004C219.614 101.244 218.864 103.645 217.937 106.212C217.021 108.785 216.088 111.348 215.146 113.9C214.213 116.441 213.443 118.733 212.833 120.775C212.234 122.816 212.026 124.421 212.208 125.587C212.401 126.837 213.167 127.358 214.5 127.15C215.5 126.999 216.734 126.014 218.208 124.191C219.677 122.374 221.255 120.014 222.937 117.108C224.614 114.207 226.292 111.035 227.958 107.587C229.625 104.145 231.13 100.671 232.479 97.1706C233.823 93.6602 234.88 90.4102 235.646 87.4206C236.422 84.4363 236.812 82.004 236.812 80.129C240.13 79.9935 242.88 80.5144 245.062 81.6915C247.239 82.8581 248.547 84.8581 248.979 87.6915C249.312 89.8165 249.25 92.3529 248.792 95.2956C248.333 98.2279 247.656 101.395 246.771 104.796C245.896 108.202 244.937 111.712 243.896 115.337C242.864 118.962 241.906 122.561 241.021 126.129C240.146 129.686 239.505 133.061 239.104 136.254C238.713 139.452 238.713 142.311 239.104 144.837C239.156 145.202 239.213 145.556 239.271 145.9C239.323 146.249 239.401 146.566 239.5 146.858Z" fill="#FF3131" fill-opacity="0.4"/>
<path d="M270.081 140.783C268.274 141.065 266.144 141.216 263.686 141.242C261.238 141.273 258.831 141.023 256.456 140.492C254.081 139.966 252.024 139.002 250.29 137.596C248.571 136.195 247.508 134.2 247.102 131.617C246.785 129.565 247.035 127.471 247.852 125.346C248.66 123.21 249.894 121.471 251.561 120.137C253.045 122.387 254.925 124.091 257.206 125.242C259.498 126.382 261.956 127.054 264.581 127.262C267.206 127.471 269.758 127.387 272.248 127.012C274.831 126.611 277.175 125.986 279.29 125.137C281.399 124.294 283.066 123.377 284.29 122.387C285.508 121.387 286.05 120.44 285.915 119.533C285.748 118.481 284.982 117.825 283.623 117.575C282.258 117.325 280.545 117.231 278.477 117.283C276.42 117.341 274.212 117.377 271.852 117.387C269.503 117.387 267.248 117.153 265.081 116.679C262.925 116.195 261.087 115.273 259.561 113.908C258.029 112.549 257.061 110.528 256.644 107.846C256.087 104.32 256.519 100.841 257.936 97.4083C259.352 93.9656 261.42 90.7312 264.144 87.7C266.863 84.6583 269.946 81.9187 273.394 79.4708C276.852 77.0125 280.394 74.9917 284.019 73.4083C287.644 71.8146 290.982 70.7781 294.04 70.3042C297.165 69.8354 299.816 70.0229 301.998 70.8667C304.175 71.7156 305.456 73.3771 305.831 75.8458C306.107 77.6531 305.967 79.4812 305.415 81.325C304.873 83.1583 304.191 84.95 303.373 86.7C302.55 88.45 301.852 90.1323 301.269 91.7417C300.686 93.3406 300.462 94.7729 300.602 96.0333C297.519 96.4083 295.154 95.9292 293.519 94.5958C291.894 93.2521 290.857 91.1792 290.415 88.3875C290.316 87.7521 290.238 87.0698 290.186 86.3458C290.144 85.6271 290.133 84.8562 290.165 84.0333C288.482 84.7833 286.628 85.7625 284.602 86.9708C282.571 88.1687 280.67 89.5021 278.894 90.9708C277.128 92.4292 275.706 93.95 274.623 95.5333C273.54 97.1062 273.107 98.6271 273.331 100.096C273.54 101.46 274.316 102.502 275.665 103.221C277.024 103.929 278.706 104.45 280.706 104.783C282.706 105.117 284.811 105.45 287.019 105.783C289.238 106.117 291.363 106.591 293.394 107.2C295.436 107.799 297.17 108.71 298.602 109.929C300.029 111.137 300.915 112.82 301.248 114.971C301.623 117.403 301.029 119.986 299.477 122.721C297.936 125.445 295.67 128.065 292.686 130.575C289.696 133.075 286.248 135.236 282.331 137.054C278.425 138.877 274.342 140.117 270.081 140.783Z" fill="#FF3131" fill-opacity="0.4"/>
<path d="M114.598 131.15L114.66 131.462C115.119 134.421 114.921 137.379 114.077 140.337C113.244 143.296 111.942 146.129 110.181 148.837C108.415 151.546 106.348 154.004 103.973 156.212C101.608 158.421 99.1082 160.249 96.4728 161.692C93.8321 163.124 91.2123 164.041 88.6186 164.442C86.2019 164.806 83.9103 164.608 81.7436 163.858C79.5769 163.108 77.7123 161.671 76.1603 159.546C74.6186 157.41 73.5613 154.473 72.9936 150.733C72.4936 147.499 72.5248 143.921 73.0769 140.004C73.629 136.077 74.629 132.056 76.0769 127.942C77.5353 123.832 79.3738 119.837 81.5978 115.962C83.8321 112.077 86.3738 108.504 89.2228 105.254C92.0665 102.004 95.1811 99.3114 98.5561 97.1708C101.931 95.0353 105.462 93.6812 109.16 93.1083C112.046 92.6656 114.389 92.7229 116.181 93.2749C117.973 93.8322 119.337 94.7437 120.285 96.0041C121.244 97.2697 121.848 98.7124 122.098 100.337C122.4 102.353 122.311 104.478 121.827 106.712C121.337 108.952 120.624 110.978 119.681 112.796C118.749 114.603 117.785 115.942 116.785 116.817C115.285 113.692 113.707 111.525 112.056 110.317C110.4 109.108 108.754 108.64 107.119 108.9C105.494 109.15 103.91 109.978 102.369 111.379C100.827 112.77 99.3686 114.535 97.9936 116.671C96.629 118.796 95.379 121.108 94.2436 123.608C93.1186 126.108 92.1655 128.608 91.3894 131.108C90.6238 133.598 90.0769 135.9 89.7436 138.025C89.4207 140.15 89.3686 141.9 89.5769 143.275C89.7853 144.598 90.4207 145.515 91.4936 146.025C92.5769 146.525 93.9415 146.65 95.5978 146.4C97.4311 146.124 99.4623 145.369 101.702 144.129C103.936 142.895 106.192 141.186 108.473 139.004C110.764 136.811 112.806 134.192 114.598 131.15Z" fill="#FF3131"/>
<path d="M116.062 150.946C115.968 150.311 116.099 148.967 116.458 146.925C116.802 144.873 117.281 142.352 117.895 139.363C118.52 136.363 119.218 133.123 120 129.633C120.791 126.133 121.552 122.613 122.291 119.071C123.041 115.529 123.708 112.175 124.291 109.008C124.885 105.831 125.338 103.061 125.645 100.696C125.963 98.321 126.041 96.5814 125.875 95.4668C125.776 94.8314 125.567 94.1856 125.25 93.5293C124.927 92.8626 124.547 92.1439 124.104 91.3626L125.208 91.196C127.333 90.8626 129.484 90.946 131.666 91.446C133.843 91.946 135.729 92.8418 137.312 94.1335C138.895 95.4251 139.843 97.1283 140.166 99.2376C140.317 100.196 140.208 101.857 139.833 104.217C139.468 106.566 138.927 109.352 138.208 112.571C137.484 115.795 136.687 119.227 135.812 122.863C134.937 126.503 134.062 130.175 133.187 133.883C132.312 137.581 131.51 141.05 130.791 144.3C130.083 147.55 129.547 150.378 129.187 152.779C128.823 155.186 128.729 156.915 128.895 157.967C128.906 158.081 128.927 158.17 128.958 158.238C129 158.311 129.031 158.394 129.062 158.488C127.489 158.628 125.729 158.378 123.77 157.738C121.812 157.102 120.093 156.175 118.625 154.967C117.151 153.758 116.302 152.42 116.062 150.946Z" fill="#FF3131"/>
<path d="M175.117 96.8592C173.851 97.0572 172.372 97.7134 170.679 98.8384C168.997 99.953 167.372 101.401 165.804 103.193C164.231 104.974 162.929 106.932 161.888 109.068C160.846 111.193 160.304 113.396 160.263 115.672C162.356 115.245 164.435 114.338 166.492 112.963C168.544 111.588 170.414 109.995 172.096 108.172C173.789 106.354 175.106 104.578 176.054 102.838C177.013 101.088 177.398 99.6613 177.221 98.5467C177.023 97.229 176.325 96.6665 175.117 96.8592ZM155.742 131.359C155.961 132.849 156.721 134.109 158.013 135.151C159.304 136.193 160.815 136.937 162.554 137.38C164.304 137.812 165.95 137.911 167.492 137.672C169.325 137.38 170.867 136.651 172.117 135.484C173.367 134.307 173.856 132.828 173.596 131.047C173.356 129.505 172.45 128.203 170.867 127.13C169.294 126.047 167.096 125.724 164.263 126.151C160.721 126.708 157.877 128.443 155.742 131.359ZM137.513 146.255C137.403 145.505 137.549 144.13 137.95 142.13C138.341 140.12 138.882 137.672 139.575 134.797C140.252 131.911 141.023 128.776 141.888 125.401C142.747 122.015 143.601 118.599 144.45 115.151C145.294 111.693 146.039 108.396 146.679 105.255C147.33 102.104 147.815 99.3124 148.138 96.8801C148.471 94.453 148.533 92.578 148.325 91.2551C148.252 90.7863 148.164 90.2967 148.054 89.7967C147.955 89.2967 147.836 88.7967 147.7 88.2967C147.643 87.9217 147.877 87.6926 148.408 87.6092C150.726 87.2499 152.888 87.2447 154.888 87.5884C156.888 87.9217 159.065 88.7967 161.429 90.2134C162.231 89.4374 163.336 88.6197 164.742 87.7551C166.158 86.8801 167.658 86.0572 169.242 85.2759C170.825 84.4999 172.351 83.8488 173.825 83.3176C175.31 82.7915 176.533 82.453 177.492 82.2967C180.169 81.8801 182.565 82.1197 184.679 83.0051C186.789 83.8957 188.513 85.2447 189.846 87.0467C191.179 88.8384 192.033 90.953 192.408 93.3801C192.867 96.3957 192.58 99.3124 191.554 102.13C190.539 104.953 189.054 107.526 187.096 109.859C185.138 112.193 182.992 114.193 180.658 115.859C182.961 117.609 184.726 119.536 185.95 121.63C187.169 123.729 187.95 125.859 188.283 128.026C188.685 130.609 188.523 133.172 187.804 135.713C187.08 138.255 185.898 140.604 184.263 142.755C182.638 144.896 180.648 146.687 178.304 148.13C175.955 149.578 173.351 150.521 170.492 150.963C167.961 151.354 165.289 151.255 162.471 150.672C159.648 150.078 156.773 148.849 153.846 146.984C153.596 147.026 153.294 147.557 152.95 148.568C152.617 149.583 152.356 150.713 152.179 151.963C151.997 153.203 151.914 154.203 151.929 154.963C149.981 155.255 147.971 155.187 145.888 154.755C143.815 154.328 141.997 153.422 140.429 152.047C138.877 150.661 137.903 148.729 137.513 146.255Z" fill="#FF3131"/>
<path d="M235.461 143.9C235.097 144.025 234.753 144.161 234.42 144.296C234.086 144.421 233.743 144.515 233.399 144.567C231.8 144.817 230.154 144.661 228.461 144.088C226.779 143.52 225.326 142.64 224.107 141.442C222.899 140.249 222.175 138.879 221.941 137.338C221.784 136.286 221.883 134.879 222.232 133.129C222.592 131.369 223.013 129.557 223.503 127.692C224.003 125.833 224.368 124.27 224.607 123.004C220.868 130.27 217.055 135.838 213.17 139.713C209.279 143.588 205.779 145.765 202.67 146.234C200.295 146.609 198.258 145.984 196.566 144.359C194.883 142.723 193.763 140.077 193.211 136.421C192.737 133.421 192.779 130.14 193.336 126.567C193.904 122.999 194.722 119.353 195.795 115.629C196.862 111.895 197.951 108.213 199.066 104.588C200.191 100.952 201.05 97.5357 201.649 94.3378C202.258 91.1295 202.378 88.317 202.003 85.9003C201.821 84.692 201.482 83.7128 200.982 82.9628C201.566 82.7545 202.128 82.5878 202.67 82.4628C203.222 82.3274 203.763 82.2128 204.295 82.1295C206.237 81.8274 208.086 81.9316 209.836 82.442C211.586 82.9576 213.076 83.8795 214.316 85.2128C215.55 86.5357 216.336 88.2753 216.67 90.442C216.888 91.9316 216.717 93.7961 216.149 96.0461C215.576 98.2857 214.826 100.687 213.899 103.254C212.982 105.827 212.05 108.39 211.107 110.942C210.175 113.484 209.404 115.775 208.795 117.817C208.196 119.859 207.987 121.463 208.17 122.629C208.362 123.879 209.128 124.4 210.461 124.192C211.461 124.041 212.696 123.057 214.17 121.234C215.638 119.416 217.217 117.057 218.899 114.15C220.576 111.249 222.253 108.077 223.92 104.629C225.586 101.187 227.092 97.7128 228.441 94.2128C229.784 90.7024 230.842 87.4524 231.607 84.4628C232.383 81.4784 232.774 79.0461 232.774 77.1711C236.092 77.0357 238.842 77.5566 241.024 78.7336C243.201 79.9003 244.508 81.9003 244.941 84.7336C245.274 86.8586 245.211 89.3951 244.753 92.3378C244.295 95.2701 243.618 98.4368 242.732 101.838C241.857 105.244 240.899 108.754 239.857 112.379C238.826 116.004 237.868 119.603 236.982 123.171C236.107 126.728 235.467 130.103 235.066 133.296C234.675 136.494 234.675 139.353 235.066 141.879C235.118 142.244 235.175 142.598 235.232 142.942C235.284 143.291 235.362 143.609 235.461 143.9Z" fill="#FF3131"/>
<path d="M266.043 137.825C264.236 138.107 262.105 138.258 259.647 138.284C257.199 138.315 254.793 138.065 252.418 137.534C250.043 137.008 247.986 136.044 246.251 134.638C244.532 133.237 243.47 131.242 243.064 128.659C242.746 126.607 242.996 124.513 243.814 122.388C244.621 120.253 245.855 118.513 247.522 117.18C249.006 119.43 250.887 121.133 253.168 122.284C255.46 123.424 257.918 124.096 260.543 124.305C263.168 124.513 265.72 124.43 268.21 124.055C270.793 123.654 273.137 123.029 275.251 122.18C277.361 121.336 279.027 120.419 280.251 119.43C281.47 118.43 282.012 117.482 281.876 116.575C281.71 115.523 280.944 114.867 279.585 114.617C278.22 114.367 276.506 114.273 274.439 114.325C272.381 114.383 270.173 114.419 267.814 114.43C265.465 114.43 263.21 114.195 261.043 113.721C258.887 113.237 257.048 112.315 255.522 110.95C253.991 109.591 253.022 107.57 252.605 104.888C252.048 101.362 252.48 97.8828 253.897 94.4505C255.314 91.0078 257.381 87.7734 260.105 84.7422C262.824 81.7005 265.907 78.9609 269.355 76.513C272.814 74.0547 276.355 72.0338 279.98 70.4505C283.605 68.8567 286.944 67.8203 290.001 67.3463C293.126 66.8776 295.777 67.0651 297.96 67.9088C300.137 68.7578 301.418 70.4192 301.793 72.888C302.069 74.6953 301.928 76.5234 301.376 78.3672C300.835 80.2005 300.152 81.9922 299.335 83.7422C298.512 85.4922 297.814 87.1745 297.23 88.7838C296.647 90.3828 296.423 91.8151 296.564 93.0755C293.48 93.4505 291.116 92.9713 289.48 91.638C287.855 90.2942 286.819 88.2213 286.376 85.4297C286.277 84.7942 286.199 84.112 286.147 83.388C286.105 82.6692 286.095 81.8984 286.126 81.0755C284.444 81.8255 282.59 82.8047 280.564 84.013C278.532 85.2109 276.631 86.5442 274.855 88.013C273.09 89.4713 271.668 90.9922 270.585 92.5755C269.501 94.1484 269.069 95.6692 269.293 97.138C269.501 98.5026 270.277 99.5442 271.626 100.263C272.986 100.971 274.668 101.492 276.668 101.825C278.668 102.159 280.772 102.492 282.98 102.825C285.199 103.159 287.324 103.633 289.355 104.242C291.397 104.841 293.131 105.753 294.564 106.971C295.991 108.18 296.876 109.862 297.21 112.013C297.585 114.445 296.991 117.029 295.439 119.763C293.897 122.487 291.631 125.107 288.647 127.617C285.657 130.117 282.21 132.279 278.293 134.096C274.387 135.919 270.303 137.159 266.043 137.825Z" fill="#FF3131"/>
<path d="M297.295 202.463C295.014 205.88 292.467 208.89 289.649 211.484C286.842 214.083 283.941 216.182 280.941 217.776C277.951 219.375 275.034 220.39 272.191 220.817C266.857 221.651 262.826 220.974 260.107 218.776C257.399 216.567 255.743 213.458 255.128 209.442C254.618 206.182 254.701 202.541 255.378 198.526C256.045 194.5 257.191 190.333 258.816 186.026C260.451 181.724 262.441 177.526 264.774 173.442C267.118 169.359 269.717 165.625 272.566 162.234C275.425 158.849 278.409 156.047 281.524 153.838C284.649 151.619 287.795 150.265 290.962 149.776C295.087 149.14 298.18 149.713 300.253 151.505C302.337 153.297 303.592 155.588 304.024 158.38C304.326 160.338 304.274 162.416 303.857 164.609C303.451 166.807 302.732 168.875 301.691 170.817C300.659 172.75 299.399 174.401 297.899 175.776C296.743 172.224 295.441 169.765 293.982 168.401C292.524 167.026 290.982 166.463 289.357 166.713C287.55 166.994 285.753 168.057 283.962 169.901C282.17 171.75 280.451 174.041 278.816 176.776C277.191 179.515 275.795 182.422 274.628 185.505C273.462 188.578 272.587 191.505 272.003 194.297C271.43 197.078 271.284 199.39 271.566 201.234C271.732 202.25 272.118 203.234 272.732 204.192C273.342 205.151 274.305 205.526 275.628 205.317C277.253 205.067 278.805 204.369 280.295 203.213C281.795 202.062 283.045 200.797 284.045 199.422C285.055 198.047 285.607 196.901 285.691 195.984C285.326 196.099 284.972 196.192 284.628 196.276C284.295 196.349 283.967 196.411 283.649 196.463C281.857 196.744 280.545 196.567 279.712 195.942C278.889 195.307 278.399 194.432 278.232 193.317C278.066 192.265 278.159 191.099 278.524 189.817C278.899 188.541 279.451 187.312 280.191 186.13C280.941 184.937 281.774 183.994 282.691 183.297L283.857 183.13C285.816 182.828 287.55 182.422 289.066 181.922C290.592 181.422 292.139 180.932 293.712 180.442C295.279 179.942 297.092 179.541 299.149 179.234C300.633 179 301.878 179.297 302.878 180.13C303.889 180.953 304.514 182.119 304.753 183.63C305.087 185.755 304.514 188.52 303.045 191.922C301.587 195.328 299.67 198.838 297.295 202.463Z" fill="#FF3131" fill-opacity="0.4"/>
<path d="M334.503 155.707C333.336 155.889 332.154 156.326 330.961 157.019C329.763 157.717 328.571 158.561 327.378 159.561C329.18 159.618 330.951 160.134 332.69 161.102C334.44 162.061 336.086 163.535 337.628 165.519C336.472 165.368 335.367 165.373 334.315 165.54C332.201 165.863 330.347 166.727 328.753 168.144C327.154 169.55 325.784 171.285 324.649 173.352C323.508 175.41 322.607 177.618 321.94 179.977C321.284 182.326 320.862 184.618 320.67 186.852C320.472 189.092 320.508 191.056 320.774 192.748C321.117 194.957 321.8 196.498 322.815 197.373C323.841 198.238 325.045 198.561 326.42 198.352C328.628 198.009 330.675 196.988 332.565 195.29C334.466 193.597 336.18 191.477 337.711 188.936C339.237 186.384 340.487 183.623 341.461 180.665C342.43 177.696 343.107 174.738 343.482 171.79C343.867 168.832 343.883 166.165 343.524 163.79C343.107 161.097 342.17 158.972 340.711 157.415C339.253 155.863 337.18 155.29 334.503 155.707ZM306.107 197.54C305.289 192.207 305.461 187.102 306.628 182.227C307.795 177.342 309.555 173.123 311.92 169.582C311.779 166.665 312.43 163.78 313.878 160.915C315.336 158.04 317.321 155.373 319.836 152.915C322.347 150.446 325.159 148.373 328.274 146.707C331.399 145.04 334.571 143.957 337.795 143.457C341.847 142.832 345.274 143.165 348.065 144.457C350.867 145.748 353.097 147.759 354.753 150.477C356.404 153.186 357.508 156.342 358.065 159.936C358.659 163.785 358.654 167.946 358.045 172.415C357.446 176.873 356.274 181.306 354.524 185.707C352.774 190.113 350.487 194.196 347.67 197.957C344.847 201.707 341.555 204.884 337.795 207.477C334.029 210.061 329.821 211.717 325.17 212.436C322.097 212.91 319.232 212.717 316.565 211.852C313.909 210.993 311.659 209.394 309.815 207.061C307.966 204.717 306.732 201.54 306.107 197.54Z" fill="#FF3131" fill-opacity="0.4"/>
<path d="M293.256 199.505C290.975 202.922 288.428 205.932 285.611 208.526C282.803 211.125 279.902 213.224 276.902 214.818C273.913 216.417 270.996 217.432 268.152 217.86C262.819 218.693 258.788 218.016 256.069 215.818C253.361 213.61 251.704 210.5 251.09 206.485C250.579 203.224 250.663 199.584 251.34 195.568C252.006 191.542 253.152 187.375 254.777 183.068C256.413 178.766 258.402 174.568 260.736 170.485C263.079 166.401 265.678 162.667 268.527 159.276C271.387 155.891 274.371 153.089 277.486 150.88C280.611 148.662 283.756 147.307 286.923 146.818C291.048 146.182 294.142 146.755 296.215 148.547C298.298 150.339 299.553 152.63 299.986 155.422C300.288 157.38 300.236 159.459 299.819 161.651C299.413 163.849 298.694 165.917 297.652 167.86C296.621 169.792 295.361 171.443 293.861 172.818C292.704 169.266 291.402 166.807 289.944 165.443C288.486 164.068 286.944 163.505 285.319 163.755C283.512 164.037 281.715 165.099 279.923 166.943C278.131 168.792 276.413 171.084 274.777 173.818C273.152 176.557 271.756 179.464 270.59 182.547C269.423 185.62 268.548 188.547 267.965 191.339C267.392 194.12 267.246 196.432 267.527 198.276C267.694 199.292 268.079 200.276 268.694 201.235C269.303 202.193 270.267 202.568 271.59 202.36C273.215 202.11 274.767 201.412 276.256 200.255C277.756 199.104 279.006 197.839 280.006 196.464C281.017 195.089 281.569 193.943 281.652 193.026C281.288 193.141 280.933 193.235 280.59 193.318C280.256 193.391 279.928 193.453 279.611 193.505C277.819 193.787 276.506 193.61 275.673 192.985C274.85 192.349 274.361 191.474 274.194 190.36C274.027 189.307 274.121 188.141 274.486 186.86C274.861 185.584 275.413 184.354 276.152 183.172C276.902 181.979 277.736 181.037 278.652 180.339L279.819 180.172C281.777 179.87 283.512 179.464 285.027 178.964C286.553 178.464 288.1 177.974 289.673 177.485C291.241 176.985 293.053 176.584 295.111 176.276C296.595 176.042 297.84 176.339 298.84 177.172C299.85 177.995 300.475 179.162 300.715 180.672C301.048 182.797 300.475 185.563 299.006 188.964C297.548 192.37 295.631 195.88 293.256 199.505Z" fill="#FF3131"/>
<path d="M330.464 152.749C329.298 152.931 328.115 153.369 326.923 154.061C325.725 154.759 324.532 155.603 323.339 156.603C325.141 156.66 326.912 157.176 328.652 158.145C330.402 159.103 332.048 160.577 333.589 162.561C332.433 162.41 331.329 162.415 330.277 162.582C328.162 162.905 326.308 163.77 324.714 165.186C323.115 166.593 321.746 168.327 320.61 170.395C319.47 172.452 318.569 174.66 317.902 177.02C317.246 179.369 316.824 181.66 316.631 183.895C316.433 186.134 316.47 188.098 316.735 189.79C317.079 191.999 317.761 193.54 318.777 194.415C319.803 195.28 321.006 195.603 322.381 195.395C324.589 195.051 326.636 194.03 328.527 192.332C330.428 190.639 332.141 188.52 333.673 185.978C335.199 183.426 336.449 180.665 337.423 177.707C338.391 174.738 339.069 171.78 339.444 168.832C339.829 165.874 339.845 163.207 339.485 160.832C339.069 158.139 338.131 156.014 336.673 154.457C335.214 152.905 333.141 152.332 330.464 152.749ZM302.069 194.582C301.251 189.249 301.423 184.145 302.589 179.27C303.756 174.384 305.516 170.165 307.881 166.624C307.74 163.707 308.391 160.822 309.839 157.957C311.298 155.082 313.282 152.415 315.798 149.957C318.308 147.488 321.121 145.415 324.235 143.749C327.36 142.082 330.532 140.999 333.756 140.499C337.808 139.874 341.235 140.207 344.027 141.499C346.829 142.79 349.058 144.801 350.714 147.52C352.365 150.228 353.47 153.384 354.027 156.978C354.621 160.827 354.615 164.988 354.006 169.457C353.407 173.915 352.235 178.348 350.485 182.749C348.735 187.155 346.449 191.238 343.631 194.999C340.808 198.749 337.516 201.926 333.756 204.52C329.99 207.103 325.782 208.759 321.131 209.478C318.058 209.952 315.194 209.759 312.527 208.895C309.871 208.035 307.621 206.436 305.777 204.103C303.928 201.759 302.694 198.582 302.069 194.582Z" fill="#FF3131"/>
<mask id="mask0_12_2" style="mask-type:luminance" maskUnits="userSpaceOnUse" x="-1" y="0" width="127" height="130">
<path d="M-0.333344 0.666672H125.885V129.911H-0.333344V0.666672Z" fill="white"/>
</mask>
<g mask="url(#mask0_12_2)">
<path d="M44.6979 95.4323C53.0052 108.146 57.8437 121.297 57.8437 121.297C57.6458 121.328 61.7552 129.859 61.7552 129.859C62.526 119.245 86.7344 91.4115 109.958 85.8646C115.526 84.5365 120.677 85.125 125.333 86.8646C125.818 85.8646 124.354 82.901 124.354 82.901C96.2916 51.6875 101.943 31.2344 101.51 12.8125C100.849 -15.0677 58.25 15.1458 58.25 15.1458C37.526 4.42709 24.1823 34.9427 24.1823 34.9427C24.1823 34.9427 6.80206 34.0625 1.59373 58.2552C-4.10939 84.724 24 74.4688 24 74.4688C24 74.4688 37.6927 84.7292 44.6979 95.4323ZM53.7812 52.0208C53.2656 51.7552 24.2031 70.5104 23.6823 70.2708C23.6823 70.2708 7.08332 74.5313 6.30727 67.4375C3.17706 38.8698 27.3333 38.7552 27.3333 38.7552C35.9323 18.625 47.9635 15.0365 57.5364 19.9844C57.5364 19.9844 94.026 -3.05729 96.8802 11.3281C100.865 31.4427 91.5989 52.8698 120.036 83.1979C120.036 83.1979 89.6562 79.6823 60.7083 116.042C60.7083 116.042 49.2812 85.6563 28.2448 72.7188C27.2552 72.1094 53.7812 52.0208 53.7812 52.0208Z" fill="#FF3131"/>
</g>
</svg>
